<svg xmlns="http://www.w3.org/2000/svg" xmlns:xlink="http://www.w3.org/1999/xlink" width="89.191" height="89.191" viewBox="0 0 89.191 89.191">
  <defs>
    <clipPath id="clip-path">
      <rect width="63.067" height="63.067" fill="none"/>
    </clipPath>
  </defs>
  <g id="Groupe_221" data-name="Groupe 221" transform="translate(0 44.595) rotate(-45)">
    <g id="add" transform="translate(0 0)" clip-path="url(#clip-path)">
      <circle id="Ellipse_11" data-name="Ellipse 11" cx="31.534" cy="31.534" r="31.534" fill="#727c8e" opacity="0.2"/>
      <g id="Union_1" data-name="Union 1" transform="translate(17.169 17.169)" fill="#fff">
        <path d="M 16.23780059814453 27.72890090942383 L 12.49200057983398 27.72890090942383 L 12.49210071563721 17.23769950866699 L 12.49210071563721 16.23769950866699 L 11.49210071563721 16.23769950866699 L 0.9999004602432251 16.23769950866699 L 1.000000476837158 12.49200057983398 L 11.49210071563721 12.49210071563721 L 12.49210071563721 12.49210071563721 L 12.49210071563721 11.49210071563721 L 12.49210071563721 0.9999004602432251 L 16.23780059814453 1.000000476837158 L 16.23769950866699 11.49210071563721 L 16.23769950866699 12.49210071563721 L 17.23769950866699 12.49210071563721 L 27.72900009155273 12.49210071563721 L 27.72890090942383 16.23780059814453 L 17.23769950866699 16.23769950866699 L 16.23769950866699 16.23769950866699 L 16.23769950866699 17.23769950866699 L 16.23769950866699 27.72900009155273 L 16.23780059814453 27.72890090942383 Z" stroke="none"/>
        <path d="M 15.23770046234131 26.72890090942383 L 15.23770046234131 17.23769950866699 L 15.23770046234131 15.23770046234131 L 17.23769950866699 15.23770046234131 L 26.72890090942383 15.23770046234131 L 26.72890090942383 13.49210071563721 L 17.23769950866699 13.49210071563721 L 15.23770046234131 13.49210071563721 L 15.23770046234131 11.49210071563721 L 15.23770046234131 2.000000476837158 L 13.49210071563721 2.000000476837158 L 13.49210071563721 11.49210071563721 L 13.49210071563721 13.49210071563721 L 11.49210071563721 13.49210071563721 L 2.000000476837158 13.49210071563721 L 2.000000476837158 15.23770046234131 L 11.49210071563721 15.23770046234131 L 13.49210071563721 15.23770046234131 L 13.49210071563721 17.23769950866699 L 13.49210071563721 26.72890090942383 L 15.23770046234131 26.72890090942383 M 16.23780059814453 28.72890090942383 L 12.49200057983398 28.72890090942383 C 11.9394006729126 28.72890090942383 11.49210071563721 28.28160095214844 11.49210071563721 27.72900009155273 L 11.49210071563721 17.23769950866699 L 0.9999004602432251 17.23769950866699 C 0.4473004639148712 17.23769950866699 4.547119090148044e-07 16.78950119018555 4.547119090148044e-07 16.23780059814453 L 4.547119090148044e-07 12.49200057983398 C 4.547119090148044e-07 11.9394006729126 0.4473004639148712 11.49210071563721 0.9999004602432251 11.49210071563721 L 11.49210071563721 11.49210071563721 L 11.49210071563721 0.9999004602432251 C 11.49210071563721 0.4473004639148712 11.9394006729126 4.547119090148044e-07 12.49200057983398 4.547119090148044e-07 L 16.23780059814453 4.547119090148044e-07 C 16.78950119018555 4.547119090148044e-07 17.23769950866699 0.4473004639148712 17.23769950866699 0.9999004602432251 L 17.23769950866699 11.49210071563721 L 27.72900009155273 11.49210071563721 C 28.28160095214844 11.49210071563721 28.72890090942383 11.9394006729126 28.72890090942383 12.49200057983398 L 28.72890090942383 16.23780059814453 C 28.72890090942383 16.78950119018555 28.28160095214844 17.23769950866699 27.72900009155273 17.23769950866699 L 17.23769950866699 17.23769950866699 L 17.23769950866699 27.72900009155273 C 17.23769950866699 28.28160095214844 16.78950119018555 28.72890090942383 16.23780059814453 28.72890090942383 Z" stroke="none" fill="#727c8e"/>
      </g>
    </g>
  </g>
</svg>
