<svg id="Groupe_154" data-name="Groupe 154" xmlns="http://www.w3.org/2000/svg" width="94.145" height="85.15" viewBox="0 0 94.145 85.15">
  <path id="Tracé_152" data-name="Tracé 152" d="M421.007,361.827H346.471a9.833,9.833,0,0,0-9.8,9.8V414.5a9.833,9.833,0,0,0,9.8,9.8h13.976l20.162,21.011a3.336,3.336,0,0,0,5.669.158l19.138-21.169h15.589a9.833,9.833,0,0,0,9.8-9.8v-42.87A9.833,9.833,0,0,0,421.007,361.827Z" transform="translate(-336.667 -361.827)" fill="#db3c3b"/>
  <path id="Tracé_153" data-name="Tracé 153" d="M495.292,478.966c-.086-.053-9.412-6.159-13.482-9.932-4.527-4.2-9.634-10.246-9.293-16.748a11.662,11.662,0,0,1,.542-2.951,12.347,12.347,0,0,1,16.306-7.764c2.68,1.03,4.118,2.748,5.928,4.8,1.81-2.054,3.247-3.772,5.928-4.8a12.347,12.347,0,0,1,16.306,7.764,11.665,11.665,0,0,1,.541,2.951c.341,6.5-4.766,12.55-9.293,16.748C504.7,472.808,495.377,478.913,495.292,478.966Z" transform="translate(-448.219 -426.613)" fill="#fff"/>
</svg>
