<?xml version="1.0" encoding="utf-8"?>
<!-- Generator: Adobe Illustrator 24.2.1, SVG Export Plug-In . SVG Version: 6.00 Build 0)  -->
<svg version="1.1" id="Calque_1" xmlns="http://www.w3.org/2000/svg" xmlns:xlink="http://www.w3.org/1999/xlink" x="0px" y="0px"
	 viewBox="0 0 2756 2713.4" style="enable-background:new 0 0 2756 2713.4;" xml:space="preserve">
<style type="text/css">
	.st0{fill:#131721;}
	.st1{fill:#CB4F24;}
	.st2{fill:#FFFFFF;}
	.st3{fill:#E7B142;}
	.st4{fill:#4570B4;}
	.st5{fill:#724F2B;}
	.st6{fill:#A21C26;}
</style>
<rect x="47.4" y="57.9" class="st0" width="2662.8" height="2607.7"/>
<path class="st1" d="M1701.6,2173.6c-28.6-45.2-95.7-170.7-26.1-539.7c40.8-216.3,78.9-253,121.9-452.7
	c49.3-228.8,76.5-344.8,47.9-461.4c-7.6-30.9-60.2-228.1-248.5-341.3c-50.7-30.5-113.2-67.9-230.3-102.7
	c-93.2-27.8-190.2-56.5-278.6-65.3c-173.3-17.1-405.9,34-570.2,191.5C396,518.9,356.5,651.4,295.7,854.8
	c-45.2,151.4-59.8,272.4-78.6,435.3c-42.6,368.3-10.9,507.1-121.6,622.4c-15.3,15.9-31.5,29.5-48.1,41.2v80.4
	c34.8-1.1,71.5-6.1,109.1-17.1c91.4-26.7,143.3-75.4,156.7-60.9c16.2,17.4-38.8,111.7-121.9,169.7c-51.8,36.2-104.8,51.5-143.8,58.3
	v10.8c50.2,23.3,123.1,50.5,213.5,61.4c102.9,12.4,183.2-1.6,222-8.7c494.4-90.6,821-222.1,975-87.1c27.3,24,34.6,43.5,78.4,74
	c100.3,69.9,216.3,75.2,296,69.7C1795.8,2280.3,1743.1,2239.1,1701.6,2173.6z"/>
<g>
	<path class="st2" d="M1840.9,1342.3c-8.1-71.4-0.6-50.1-13.1-317.8c-7.6-163.7-12.4-192.6-26.1-230.7
		c-12.3-34.2-44.5-120.5-130.6-191.5c-50.7-41.8-101.4-63-134.9-74c-69.1,85.7-126.4,103.5-165.4,104.4
		c-65.5,1.6-99.3-44.1-213.3-60.9c0,0-51.2-7.6-104.4-4.4c-135,8.1-285.3,90.5-370,217.6c-82.9,124.5-98.4,276.6-100.1,296
		c-8.2,95.3,6.5,184.8-52.2,235c-24.6,21-53.5,27.9-74,30.5c-10.8-50.8-46.6-90-91.4-100.1c-47.6-10.8-93.6,13.9-117.5,43.5
		c-36.8,45.5-21.7,111.6,8.7,243.7c27.5,119.7,55.3,158,82.7,182.8c18.5,16.8,47.5,42.2,87.1,39.2c43.3-3.4,70.9-38.8,80-52.3
		l1.8-2.8c0,0,0.7-1.1,0.9-1.5c0.1,0.7,0.3,1.4,0.5,2.1c1.8,8.1,3.8,16.8,5.9,25.9c83.4,211.9,198.9,349.7,272.2,424.6
		c93.3,95.6,216.5,221.8,409.1,252.5c52.7,8.4,148.7,22.4,254.3-25.9c80.9-47.1,138.3-112.6,180.1-176.7
		c36.3-55.5,61-109.9,79.2-150c46.1-101.6,33.8-129.5,108.8-300.3c32.1-73.2,41.7-126.3,48.2-179.8
		C1876.3,1497.7,1851.4,1435.1,1840.9,1342.3z"/>
</g>
<path class="st3" d="M1242.4,1318.3c2.4-5.4,5.1-13.4,4.4-22.8c-1.9-25.2-25.9-41.4-42.5-52.2c-11.3-7.4-52.1-32.4-115.3-34.8
	c-51.7-2-90.4,12.2-109.9,19.6c-39.9,15.1-68.9,35.5-87.1,50.4c7.9,3.3,19.9,6.9,33.7,5.1c27.3-3.5,37.7-18.8,67-35.5
	c27.1-15.4,51.5-19.1,68.8-19.8c43.4-1.9,75.1,12.3,90.7,19.4C1199.8,1269.3,1227.8,1300.7,1242.4,1318.3z"/>
<path class="st4" d="M1242.4,1318.3c-1.3,1.4-64.7-84.5-156-92.1c-29.6-2.5-53.7,2.9-53.7,2.9c-37,8.3-51.6,25.5-94.3,39.2
	c-19.7,6.3-36.4,8.9-46.4,10.1c18.6,18.7,48.2,43.2,89.9,59.5c102.6,40.1,197.5-0.6,219.6-10.8c-28.9,7.3-53.2,11.3-70.9,13.7
	c-19.3,2.6-31.1,4.1-47.5,3.6c-6.4-0.2-29-1.1-57.3-9.4c-31.3-9.1-56.2-23.3-74.4-36.3c5.9-7.1,14.4-16.1,25.8-25
	c7.9-6.2,23.7-17.4,45.7-25.4c46.6-16.9,87.9-7.8,102.3-4.4c18.4,4.4,31.6,10.4,39.5,14.1
	C1215.4,1281.8,1242.4,1318.3,1242.4,1318.3z"/>
<path class="st0" d="M1237.4,1324.4c-9.8-13.7-27.3-34.6-55-52.3c-14.6-9.3-52.2-32.4-104.5-30.3c-8.7,0.4-45.3,2.6-83.9,26.1
	c-16.9,10.4-29.1,21.8-37.1,30.3c12.9,9.6,33.2,22.6,60.5,31.6c12.7,4.3,40.5,12.1,75.6,11c19.7-0.6,26.5,1,85.2-11
	c9.8-2,18-2.1,23.4-2.8c-9.9,3.4-23.4,7.6-39.8,11.3c-20.3,4.7-42.2,9.8-70.2,9.8c-12.2,0-42.3-0.9-78.4-13.1
	c-30.2-10.2-53-24.3-68-35.3c8.1-10.5,21.8-25.6,42.5-38.6c38.5-24.5,76.2-25.8,90.3-26.1c54.8-1.3,93.9,22.4,107.8,31
	c28.3,17.6,46.5,38.6,56.6,52.2C1240.7,1320.3,1239,1322.3,1237.4,1324.4z"/>
<g>
	<path class="st0" d="M1077.9,1241.9c-8.3,0.3-41.9,2.4-78.4,22.9c-0.1,1.8-0.3,3.6-0.3,5.4c0,35.9,29.1,65,65,65
		c35.9,0,65-29.1,65-65c0-8.3-1.6-16.1-4.4-23.5C1111,1243.3,1095.3,1241.1,1077.9,1241.9z"/>
</g>
<g>
	<path class="st0" d="M1656.9,1235.1c-8.3,0.3-41.9,2.4-78.4,22.9c-0.1,1.8-0.3,3.6-0.3,5.4c0,35.9,29.1,65,65,65
		c35.9,0,65-29.1,65-65c0-8.3-1.6-16.1-4.4-23.5C1690,1236.6,1674.3,1234.4,1656.9,1235.1z"/>
</g>
<path class="st3" d="M1536.7,1318.3c-2-5.4-4.1-13.4-3.5-22.8c1.5-25.2,20.9-41.4,34.2-52.2c9.1-7.4,42-32.4,93.1-34.8
	c41.7-2,72.9,12.2,88.7,19.6c32.1,15.1,55.6,35.5,70.2,50.4c-6.4,3.3-16.1,6.9-27.2,5.1c-22.1-3.5-30.4-18.8-54.1-35.5
	c-21.9-15.4-41.5-19.1-55.5-19.8c-35-1.9-60.6,12.3-73.2,19.4C1571.1,1269.3,1548.6,1300.7,1536.7,1318.3z"/>
<path class="st4" d="M1536.7,1318.3c1.1,1.4,52.2-84.5,125.8-92.1c23.9-2.5,43.3,2.9,43.3,2.9c29.8,8.3,41.6,25.5,76.1,39.2
	c15.9,6.3,29.3,8.9,37.5,10.1c-14.9,18.7-38.8,43.2-72.5,59.5c-82.8,40.1-159.4-0.6-177.2-10.8c23.3,7.3,42.9,11.3,57.2,13.7
	c15.6,2.6,25.1,4.1,38.3,3.6c5.1-0.2,23.4-1.1,46.2-9.4c25.3-9.1,45.3-23.3,60-36.3c-4.8-7.1-11.6-16.1-20.8-25
	c-6.4-6.2-19.1-17.4-36.9-25.4c-37.6-16.9-71-7.8-82.6-4.4c-14.9,4.4-25.5,10.4-31.9,14.1
	C1558.5,1281.8,1536.7,1318.3,1536.7,1318.3z"/>
<path class="st0" d="M1540.8,1324.4c7.9-13.7,22-34.6,44.4-52.3c11.8-9.3,42.1-32.4,84.3-30.3c7,0.4,36.6,2.6,67.7,26.1
	c13.6,10.4,23.5,21.8,30,30.3c-10.4,9.6-26.8,22.6-48.8,31.6c-10.3,4.3-32.7,12.1-61,11c-15.9-0.6-21.3,1-68.8-11
	c-7.9-2-14.6-2.1-18.9-2.8c7.9,3.4,18.9,7.6,32.1,11.3c16.3,4.7,34,9.8,56.6,9.8c9.9,0,34.1-0.9,63.2-13.1
	c24.4-10.2,42.7-24.3,54.8-35.3c-6.6-10.5-17.6-25.6-34.2-38.6c-31.1-24.5-61.5-25.8-72.9-26.1c-44.2-1.3-75.7,22.4-86.9,31
	c-22.8,17.6-37.5,38.6-45.7,52.2C1538.1,1320.3,1539.4,1322.3,1540.8,1324.4z"/>
<path class="st5" d="M1273.6,1112.4c-1,18.4-1.9,36.9-2.9,55.3c-50.5-3.2-121.1-6.7-196.6-7.3c-17-0.1-42.9-0.2-75.7,7.3
	c-47.2,10.8-78.2,30-85.9,35c-24.9,15.9-42.5,33.5-53.8,46.6c7.3-19.4,22.5-52.2,53.8-81.6c39.1-36.6,81.8-48,110.6-55.3
	c38.6-9.8,72.4-9.1,138.3-7.3C1207.9,1106.4,1246.4,1109.6,1273.6,1112.4z"/>
<path class="st5" d="M1553.2,1180.8c-1.9-14.1-3.9-32.1-5.8-46.2c34-6.9,88.4-25.5,154.3-28.8c36.4-1.8,51.2-2.3,80.1,3.6
	c19.8,4,28.9,11.8,43.7,32.1c13.3,18.2,12.5,39.3,11.6,48c-14.1-12.8-11.4-32.6-46.6-40.3c-22.5-4.9-45.1-4.3-62.5-2.3
	C1694.4,1150.9,1619.5,1161,1553.2,1180.8z"/>
<path d="M1427.3,1716.6c-6.4-6.3-15.9-13.7-28.8-18.6c-3.3-1.3-24-8.7-47.9-2.1c-6.9,1.9-17.9,4.9-19.1,11.8
	c-1.1,6.4,6.9,12.4,8.3,13.4c8.1,6.1,21.1,7.4,27.8,1.6c5.2-4.6,2.4-9.9,7.8-14.4c5.6-4.9,14.1-3.5,23.2-2.1
	C1405.2,1707.4,1415.6,1709.9,1427.3,1716.6z"/>
<path class="st6" d="M1127,1910.3c76.7-2.6,123.3-12.6,152.3-21.8c12.6-4,44.9-15.2,78.4-10.9c23.9,3.1,39.2,6.5,39.2,6.5
	c18.4,4.2,21.2,6.4,30.5,6.5c17.8,0.2,24.5-8,41.3-13.1c14.8-4.4,29.5-2.3,58.8,2.2c18.1,2.8,42.9,7.7,71.8,17.4
	c-9.5,14.3-23.7,33.6-43.5,54.4c-22.6,23.7-47.1,49.4-87.1,67.5c-14.5,6.6-47,19.3-89.2,19.6c-54.7,0.4-93.5-20.3-137.1-43.5
	C1212.3,1979.1,1170.3,1952.7,1127,1910.3z"/>
<path class="st2" d="M1242.2,2665.7c40-126.3,80-252.6,120-378.9c-303.3-220.5-606.5-441-909.7-661.6c7.7,129.7,19.9,227.2,30.5,296
	c5.8,37.5,15.3,94.2,0,165.4c-6.1,28.1-16.1,72.4-47.9,113.2c-37.2,47.7-85.9,67.1-143.7,87.1c-63.1,21.8-145,47.1-244,70.4v308.6
	L1242.2,2665.7L1242.2,2665.7z"/>
</svg>
