<svg xmlns="http://www.w3.org/2000/svg" width="210" height="53" viewBox="0 0 210 53">
  <g id="qty" transform="translate(-219 -155.224)">
    <text id="_1" data-name="1" transform="translate(331 198.224)" fill="#727c8e" font-size="44" font-family="NeusaNextStd-Regular, Neusa Next Std"><tspan x="-19.668" y="0">1</tspan></text>
    <g id="Groupe_29" data-name="Groupe 29" transform="translate(375.715 155)">
      <circle id="Ellipse_11" data-name="Ellipse 11" cx="26.5" cy="26.5" r="26.5" transform="translate(0.285 0.224)" fill="#727c8e" opacity="0.2"/>
      <g id="Union_1" data-name="Union 1" transform="translate(12.285 12.224)" fill="#fff">
        <path d="M 17.00010108947754 29.50060081481934 L 13.00050067901611 29.50060081481934 C 12.72436046600342 29.50060081481934 12.49970054626465 29.2763500213623 12.49970054626465 29.00069999694824 L 12.49970054626465 18 L 12.49970054626465 17.5 L 11.99970054626465 17.5 L 0.9999004006385803 17.5 C 0.7242504358291626 17.5 0.5000004172325134 17.2757511138916 0.5000004172325134 17.00010108947754 L 0.5000004172325134 13.00050067901611 C 0.5000004172325134 12.72436046600342 0.7242504358291626 12.49970054626465 0.9999004006385803 12.49970054626465 L 11.99970054626465 12.49970054626465 L 12.49970054626465 12.49970054626465 L 12.49970054626465 11.99970054626465 L 12.49970054626465 0.9999004006385803 C 12.49970054626465 0.7242504358291626 12.72436046600342 0.5000004172325134 13.00050067901611 0.5000004172325134 L 17.00010108947754 0.5000004172325134 C 17.2757511138916 0.5000004172325134 17.5 0.7242504358291626 17.5 0.9999004006385803 L 17.5 11.99970054626465 L 17.5 12.49970054626465 L 18 12.49970054626465 L 29.00069999694824 12.49970054626465 C 29.2763500213623 12.49970054626465 29.50060081481934 12.72436046600342 29.50060081481934 13.00050067901611 L 29.50060081481934 17.00010108947754 C 29.50060081481934 17.2757511138916 29.2763500213623 17.5 29.00069999694824 17.5 L 18 17.5 L 17.5 17.5 L 17.5 18 L 17.5 29.00069999694824 C 17.5 29.2763500213623 17.2757511138916 29.50060081481934 17.00010108947754 29.50060081481934 Z" stroke="none"/>
        <path d="M 17.00010108947754 29.00060081481934 L 17 29.00069999694824 L 17 18 L 17 17 L 18 17 L 29.00060081481934 17.00010108947754 L 29.00069999694824 12.99970054626465 L 18 12.99970054626465 L 17 12.99970054626465 L 17 11.99970054626465 L 17.00010108947754 1.000000357627869 L 12.99970054626465 0.9999004006385803 L 12.99970054626465 11.99970054626465 L 12.99970054626465 12.99970054626465 L 11.99970054626465 12.99970054626465 L 1.000000357627869 13.00050067901611 L 0.9999004006385803 17 L 11.99970054626465 17 L 12.99970054626465 17 L 12.99970054626465 18 L 13.00050067901611 29.00060081481934 L 17.00010108947754 29.00060081481934 M 17.00010108947754 30.00060081481934 L 13.00050067901611 30.00060081481934 C 12.44790077209473 30.00060081481934 11.99970054626465 29.55240058898926 11.99970054626465 29.00069999694824 L 11.99970054626465 18 L 0.9999004006385803 18 C 0.4473004043102264 18 4.07409658009783e-07 17.55270004272461 4.07409658009783e-07 17.00010108947754 L 4.07409658009783e-07 13.00050067901611 C 4.07409658009783e-07 12.44790077209473 0.4473004043102264 11.99970054626465 0.9999004006385803 11.99970054626465 L 11.99970054626465 11.99970054626465 L 11.99970054626465 0.9999004006385803 C 11.99970054626465 0.4473004043102264 12.44790077209473 4.07409658009783e-07 13.00050067901611 4.07409658009783e-07 L 17.00010108947754 4.07409658009783e-07 C 17.55270004272461 4.07409658009783e-07 18 0.4473004043102264 18 0.9999004006385803 L 18 11.99970054626465 L 29.00069999694824 11.99970054626465 C 29.55240058898926 11.99970054626465 30.00060081481934 12.44790077209473 30.00060081481934 13.00050067901611 L 30.00060081481934 17.00010108947754 C 30.00060081481934 17.55270004272461 29.55240058898926 18 29.00069999694824 18 L 18 18 L 18 29.00069999694824 C 18 29.55240058898926 17.55270004272461 30.00060081481934 17.00010108947754 30.00060081481934 Z" stroke="none" fill="#727c8e"/>
      </g>
    </g>
    <g id="Groupe_30" data-name="Groupe 30" transform="translate(219 155)">
      <circle id="Ellipse_11-2" data-name="Ellipse 11" cx="26.5" cy="26.5" r="26.5" transform="translate(0 0.224)" fill="#727c8e" opacity="0.2"/>
      <g id="Rectangle_17" data-name="Rectangle 17" transform="translate(41 23.224) rotate(90)" fill="#fff" stroke="#727c8e" stroke-width="1">
        <rect width="6" height="29" rx="1" stroke="none"/>
        <rect x="0.5" y="0.5" width="5" height="28" rx="0.5" fill="none"/>
      </g>
    </g>
  </g>
</svg>
