<svg xmlns="http://www.w3.org/2000/svg" width="261" height="69" viewBox="0 0 261 69">
  <g id="Groupe_315" data-name="Groupe 315" transform="translate(-1611.657 -2785.368)">
    <g id="Groupe_173" data-name="Groupe 173" transform="translate(1612 2785)">
      <rect id="Rectangle_454" data-name="Rectangle 454" width="261" height="69" rx="23" transform="translate(-0.343 0.368)" fill="#e2c5cb"/>
      <g id="add_to_cart" data-name="add to cart" transform="translate(23.423 9.789)" style="isolation: isolate">
        <text id="Je_veux_cet_article_" data-name="Je veux cet article !" transform="translate(78.234 28.579)" fill="#fff" font-size="18" font-family="NewsCycle-Bold, News Cycle" font-weight="700" letter-spacing="0.06em"><tspan x="-78.177" y="0">Je veux cet article !</tspan></text>
        <g id="icon" transform="translate(178.506 0)">
          <rect id="Rectangle_2" data-name="Rectangle 2" width="45.43" height="46.728" rx="22.715" transform="translate(0 0)" fill="#fff"/>
          <path id="Tracé_11" data-name="Tracé 11" d="M30.384,20.083v0a1.294,1.294,0,0,0-.4-.934h0L22.2,11.358l0,0a1.3,1.3,0,1,0-1.743,1.921l6.8,6.8-6.89,6.89h0A1.3,1.3,0,0,0,22.2,28.808h0l7.788-7.788h0a1.294,1.294,0,0,0,.4-.934Z" transform="translate(-1.828 3.278)" fill="#515c6f"/>
        </g>
      </g>
    </g>
  </g>
</svg>
